# xmcd CD database file
#
# Track frame offsets:
#	150
#	19010
#	45545
#	63897
#
# Disc length: 1097 seconds
#
# Revision: 0
# Processed by: cddbd v1.5.1PL0 Copyright (c) Steve Scherf et al.
# Submitted via: CDex 1.51
#
DISCID=27044704
DTITLE=果奈 - この恋のうた
DYEAR=2004
DGENRE=JPop
TTITLE0=この恋のうた
TTITLE1=限りある世界
TTITLE2=空とほおずり
TTITLE3=日にち薬
EXTD=YEAR: 2004
EXTT0=
EXTT1=
EXTT2=
EXTT3=
PLAYORDER=
